<mxfile host="app.diagrams.net" modified="2020-11-04T05:55:44.578Z" agent="5.0 (Windows NT 10.0; Win64; x64) AppleWebKit/537.36 (KHTML, like Gecko) Chrome/86.0.4240.111 Safari/537.36" etag="DcVP4DTw-8r_fnKF1VJN" version="13.8.9-1" type="github">
  <diagram id="iKFN6JdOPibq9fqa3J4Q" name="Page-1">
    <mxGraphModel dx="1038" dy="548" grid="1" gridSize="10" guides="1" tooltips="1" connect="1" arrows="1" fold="1" page="1" pageScale="1" pageWidth="827" pageHeight="1169" math="0" shadow="0">
      <root>
        <mxCell id="0" />
        <mxCell id="1" parent="0" />
        <mxCell id="dnD3BIGXRiCvUnItMQ0W-30" style="edgeStyle=orthogonalEdgeStyle;rounded=0;orthogonalLoop=1;jettySize=auto;html=1;entryX=0;entryY=0.5;entryDx=0;entryDy=0;" parent="1" source="dnD3BIGXRiCvUnItMQ0W-1" target="dnD3BIGXRiCvUnItMQ0W-2" edge="1">
          <mxGeometry relative="1" as="geometry" />
        </mxCell>
        <mxCell id="dnD3BIGXRiCvUnItMQ0W-31" style="edgeStyle=orthogonalEdgeStyle;rounded=0;orthogonalLoop=1;jettySize=auto;html=1;entryX=-0.018;entryY=0.603;entryDx=0;entryDy=0;entryPerimeter=0;" parent="1" source="dnD3BIGXRiCvUnItMQ0W-1" target="dnD3BIGXRiCvUnItMQ0W-3" edge="1">
          <mxGeometry relative="1" as="geometry" />
        </mxCell>
        <mxCell id="dnD3BIGXRiCvUnItMQ0W-32" style="edgeStyle=orthogonalEdgeStyle;rounded=0;orthogonalLoop=1;jettySize=auto;html=1;" parent="1" source="dnD3BIGXRiCvUnItMQ0W-1" target="dnD3BIGXRiCvUnItMQ0W-4" edge="1">
          <mxGeometry relative="1" as="geometry" />
        </mxCell>
        <mxCell id="dnD3BIGXRiCvUnItMQ0W-34" style="edgeStyle=orthogonalEdgeStyle;rounded=0;orthogonalLoop=1;jettySize=auto;html=1;entryX=0;entryY=0.5;entryDx=0;entryDy=0;" parent="1" source="dnD3BIGXRiCvUnItMQ0W-1" target="dnD3BIGXRiCvUnItMQ0W-6" edge="1">
          <mxGeometry relative="1" as="geometry" />
        </mxCell>
        <mxCell id="dnD3BIGXRiCvUnItMQ0W-35" style="edgeStyle=orthogonalEdgeStyle;rounded=0;orthogonalLoop=1;jettySize=auto;html=1;entryX=0;entryY=0.5;entryDx=0;entryDy=0;" parent="1" source="dnD3BIGXRiCvUnItMQ0W-1" target="dnD3BIGXRiCvUnItMQ0W-7" edge="1">
          <mxGeometry relative="1" as="geometry" />
        </mxCell>
        <mxCell id="dnD3BIGXRiCvUnItMQ0W-46" style="edgeStyle=orthogonalEdgeStyle;rounded=0;orthogonalLoop=1;jettySize=auto;html=1;entryX=0;entryY=0.5;entryDx=0;entryDy=0;" parent="1" source="dnD3BIGXRiCvUnItMQ0W-1" target="dnD3BIGXRiCvUnItMQ0W-5" edge="1">
          <mxGeometry relative="1" as="geometry" />
        </mxCell>
        <mxCell id="dnD3BIGXRiCvUnItMQ0W-1" value="구현해야할 페이지" style="rounded=0;whiteSpace=wrap;html=1;fillColor=#b1ddf0;strokeColor=#10739e;" parent="1" vertex="1">
          <mxGeometry x="10" y="330" width="20" height="310" as="geometry" />
        </mxCell>
        <mxCell id="dnD3BIGXRiCvUnItMQ0W-21" value="" style="edgeStyle=orthogonalEdgeStyle;rounded=0;orthogonalLoop=1;jettySize=auto;html=1;" parent="1" source="dnD3BIGXRiCvUnItMQ0W-2" target="dnD3BIGXRiCvUnItMQ0W-20" edge="1">
          <mxGeometry relative="1" as="geometry" />
        </mxCell>
        <mxCell id="dnD3BIGXRiCvUnItMQ0W-24" style="edgeStyle=orthogonalEdgeStyle;rounded=0;orthogonalLoop=1;jettySize=auto;html=1;entryX=0;entryY=0.5;entryDx=0;entryDy=0;" parent="1" source="dnD3BIGXRiCvUnItMQ0W-2" target="dnD3BIGXRiCvUnItMQ0W-15" edge="1">
          <mxGeometry relative="1" as="geometry" />
        </mxCell>
        <mxCell id="dnD3BIGXRiCvUnItMQ0W-27" style="edgeStyle=orthogonalEdgeStyle;rounded=0;orthogonalLoop=1;jettySize=auto;html=1;entryX=0;entryY=0.5;entryDx=0;entryDy=0;" parent="1" source="dnD3BIGXRiCvUnItMQ0W-2" target="dnD3BIGXRiCvUnItMQ0W-26" edge="1">
          <mxGeometry relative="1" as="geometry" />
        </mxCell>
        <mxCell id="dnD3BIGXRiCvUnItMQ0W-29" style="edgeStyle=orthogonalEdgeStyle;rounded=0;orthogonalLoop=1;jettySize=auto;html=1;entryX=0;entryY=0.5;entryDx=0;entryDy=0;" parent="1" source="dnD3BIGXRiCvUnItMQ0W-2" target="dnD3BIGXRiCvUnItMQ0W-28" edge="1">
          <mxGeometry relative="1" as="geometry" />
        </mxCell>
        <mxCell id="dnD3BIGXRiCvUnItMQ0W-2" value="메인페이지" style="rounded=1;whiteSpace=wrap;html=1;arcSize=0;fillColor=#fff2cc;strokeColor=#d6b656;" parent="1" vertex="1">
          <mxGeometry x="80" y="32.5" width="40" height="200" as="geometry" />
        </mxCell>
        <mxCell id="dnD3BIGXRiCvUnItMQ0W-36" style="edgeStyle=orthogonalEdgeStyle;rounded=0;orthogonalLoop=1;jettySize=auto;html=1;" parent="1" source="dnD3BIGXRiCvUnItMQ0W-3" target="dnD3BIGXRiCvUnItMQ0W-37" edge="1">
          <mxGeometry relative="1" as="geometry">
            <mxPoint x="190" y="290" as="targetPoint" />
          </mxGeometry>
        </mxCell>
        <mxCell id="dnD3BIGXRiCvUnItMQ0W-41" style="edgeStyle=orthogonalEdgeStyle;rounded=0;orthogonalLoop=1;jettySize=auto;html=1;entryX=0;entryY=0.5;entryDx=0;entryDy=0;" parent="1" source="dnD3BIGXRiCvUnItMQ0W-3" target="dnD3BIGXRiCvUnItMQ0W-40" edge="1">
          <mxGeometry relative="1" as="geometry" />
        </mxCell>
        <mxCell id="dnD3BIGXRiCvUnItMQ0W-3" value="로그인/회원가입" style="rounded=1;whiteSpace=wrap;html=1;fillColor=#fff2cc;strokeColor=#d6b656;" parent="1" vertex="1">
          <mxGeometry x="80" y="270" width="40" height="130" as="geometry" />
        </mxCell>
        <mxCell id="a6otvqooGXa-oV83V2TE-5" style="edgeStyle=orthogonalEdgeStyle;rounded=0;orthogonalLoop=1;jettySize=auto;html=1;entryX=0;entryY=0.5;entryDx=0;entryDy=0;" edge="1" parent="1" source="dnD3BIGXRiCvUnItMQ0W-4" target="a6otvqooGXa-oV83V2TE-2">
          <mxGeometry relative="1" as="geometry" />
        </mxCell>
        <mxCell id="a6otvqooGXa-oV83V2TE-6" style="edgeStyle=orthogonalEdgeStyle;rounded=0;orthogonalLoop=1;jettySize=auto;html=1;entryX=0;entryY=0.5;entryDx=0;entryDy=0;" edge="1" parent="1" source="dnD3BIGXRiCvUnItMQ0W-4" target="a6otvqooGXa-oV83V2TE-3">
          <mxGeometry relative="1" as="geometry" />
        </mxCell>
        <mxCell id="a6otvqooGXa-oV83V2TE-7" style="edgeStyle=orthogonalEdgeStyle;rounded=0;orthogonalLoop=1;jettySize=auto;html=1;entryX=0;entryY=0.5;entryDx=0;entryDy=0;" edge="1" parent="1" source="dnD3BIGXRiCvUnItMQ0W-4" target="a6otvqooGXa-oV83V2TE-4">
          <mxGeometry relative="1" as="geometry" />
        </mxCell>
        <mxCell id="dnD3BIGXRiCvUnItMQ0W-4" value="코디룩" style="rounded=1;whiteSpace=wrap;html=1;fillColor=#fff2cc;strokeColor=#d6b656;" parent="1" vertex="1">
          <mxGeometry x="80" y="435" width="40" height="140" as="geometry" />
        </mxCell>
        <mxCell id="a6otvqooGXa-oV83V2TE-22" style="edgeStyle=orthogonalEdgeStyle;rounded=0;orthogonalLoop=1;jettySize=auto;html=1;" edge="1" parent="1" source="dnD3BIGXRiCvUnItMQ0W-5" target="a6otvqooGXa-oV83V2TE-8">
          <mxGeometry relative="1" as="geometry" />
        </mxCell>
        <mxCell id="a6otvqooGXa-oV83V2TE-23" style="edgeStyle=orthogonalEdgeStyle;rounded=0;orthogonalLoop=1;jettySize=auto;html=1;entryX=0;entryY=0.5;entryDx=0;entryDy=0;" edge="1" parent="1" source="dnD3BIGXRiCvUnItMQ0W-5" target="a6otvqooGXa-oV83V2TE-9">
          <mxGeometry relative="1" as="geometry" />
        </mxCell>
        <mxCell id="a6otvqooGXa-oV83V2TE-24" style="edgeStyle=orthogonalEdgeStyle;rounded=0;orthogonalLoop=1;jettySize=auto;html=1;entryX=0;entryY=0.5;entryDx=0;entryDy=0;" edge="1" parent="1" source="dnD3BIGXRiCvUnItMQ0W-5" target="a6otvqooGXa-oV83V2TE-10">
          <mxGeometry relative="1" as="geometry" />
        </mxCell>
        <mxCell id="dnD3BIGXRiCvUnItMQ0W-5" value="옷장" style="rounded=1;whiteSpace=wrap;html=1;fillColor=#fff2cc;strokeColor=#d6b656;" parent="1" vertex="1">
          <mxGeometry x="80" y="630" width="40" height="160" as="geometry" />
        </mxCell>
        <mxCell id="a6otvqooGXa-oV83V2TE-53" style="edgeStyle=orthogonalEdgeStyle;rounded=0;orthogonalLoop=1;jettySize=auto;html=1;entryX=0;entryY=0.5;entryDx=0;entryDy=0;" edge="1" parent="1" source="dnD3BIGXRiCvUnItMQ0W-6" target="a6otvqooGXa-oV83V2TE-52">
          <mxGeometry relative="1" as="geometry" />
        </mxCell>
        <mxCell id="a6otvqooGXa-oV83V2TE-55" style="edgeStyle=orthogonalEdgeStyle;rounded=0;orthogonalLoop=1;jettySize=auto;html=1;entryX=0;entryY=0.5;entryDx=0;entryDy=0;" edge="1" parent="1" source="dnD3BIGXRiCvUnItMQ0W-6" target="a6otvqooGXa-oV83V2TE-54">
          <mxGeometry relative="1" as="geometry" />
        </mxCell>
        <mxCell id="dnD3BIGXRiCvUnItMQ0W-6" value="옷 검색" style="rounded=1;whiteSpace=wrap;html=1;fillColor=#fff2cc;strokeColor=#d6b656;" parent="1" vertex="1">
          <mxGeometry x="80" y="860" width="40" height="80" as="geometry" />
        </mxCell>
        <mxCell id="a6otvqooGXa-oV83V2TE-41" style="edgeStyle=orthogonalEdgeStyle;rounded=0;orthogonalLoop=1;jettySize=auto;html=1;" edge="1" parent="1" source="dnD3BIGXRiCvUnItMQ0W-7" target="a6otvqooGXa-oV83V2TE-39">
          <mxGeometry relative="1" as="geometry" />
        </mxCell>
        <mxCell id="a6otvqooGXa-oV83V2TE-42" style="edgeStyle=orthogonalEdgeStyle;rounded=0;orthogonalLoop=1;jettySize=auto;html=1;entryX=0;entryY=0.5;entryDx=0;entryDy=0;" edge="1" parent="1" source="dnD3BIGXRiCvUnItMQ0W-7" target="a6otvqooGXa-oV83V2TE-40">
          <mxGeometry relative="1" as="geometry" />
        </mxCell>
        <mxCell id="a6otvqooGXa-oV83V2TE-57" style="edgeStyle=orthogonalEdgeStyle;rounded=0;orthogonalLoop=1;jettySize=auto;html=1;entryX=0;entryY=0.5;entryDx=0;entryDy=0;" edge="1" parent="1" source="dnD3BIGXRiCvUnItMQ0W-7" target="a6otvqooGXa-oV83V2TE-56">
          <mxGeometry relative="1" as="geometry" />
        </mxCell>
        <mxCell id="dnD3BIGXRiCvUnItMQ0W-7" value="옷 추천" style="rounded=1;whiteSpace=wrap;html=1;fillColor=#fff2cc;strokeColor=#d6b656;" parent="1" vertex="1">
          <mxGeometry x="80" y="1010" width="40" height="100" as="geometry" />
        </mxCell>
        <mxCell id="dnD3BIGXRiCvUnItMQ0W-19" value="" style="edgeStyle=orthogonalEdgeStyle;rounded=0;orthogonalLoop=1;jettySize=auto;html=1;" parent="1" source="dnD3BIGXRiCvUnItMQ0W-15" target="dnD3BIGXRiCvUnItMQ0W-18" edge="1">
          <mxGeometry relative="1" as="geometry" />
        </mxCell>
        <mxCell id="dnD3BIGXRiCvUnItMQ0W-15" value="post" style="rounded=1;whiteSpace=wrap;html=1;" parent="1" vertex="1">
          <mxGeometry x="190" y="22.5" width="80" height="30" as="geometry" />
        </mxCell>
        <mxCell id="dnD3BIGXRiCvUnItMQ0W-18" value="코디룩: 인기코디 노출" style="ellipse;whiteSpace=wrap;html=1;rounded=1;" parent="1" vertex="1">
          <mxGeometry x="310" y="10" width="135" height="55" as="geometry" />
        </mxCell>
        <mxCell id="dnD3BIGXRiCvUnItMQ0W-20" value="날씨별 코디" style="whiteSpace=wrap;html=1;rounded=1;arcSize=0;" parent="1" vertex="1">
          <mxGeometry x="190" y="80" width="80" height="30" as="geometry" />
        </mxCell>
        <mxCell id="dnD3BIGXRiCvUnItMQ0W-26" value="코디 월드컵" style="rounded=0;whiteSpace=wrap;html=1;" parent="1" vertex="1">
          <mxGeometry x="190" y="140" width="80" height="30" as="geometry" />
        </mxCell>
        <mxCell id="dnD3BIGXRiCvUnItMQ0W-28" value="코디 투표" style="rounded=0;whiteSpace=wrap;html=1;" parent="1" vertex="1">
          <mxGeometry x="190" y="202.5" width="80" height="30" as="geometry" />
        </mxCell>
        <mxCell id="dnD3BIGXRiCvUnItMQ0W-37" value="로그인" style="rounded=0;whiteSpace=wrap;html=1;" parent="1" vertex="1">
          <mxGeometry x="190" y="280" width="80" height="40" as="geometry" />
        </mxCell>
        <mxCell id="dnD3BIGXRiCvUnItMQ0W-40" value="회원가입" style="rounded=0;whiteSpace=wrap;html=1;" parent="1" vertex="1">
          <mxGeometry x="190" y="350" width="80" height="40" as="geometry" />
        </mxCell>
        <mxCell id="dnD3BIGXRiCvUnItMQ0W-43" style="edgeStyle=orthogonalEdgeStyle;rounded=0;orthogonalLoop=1;jettySize=auto;html=1;exitX=0.5;exitY=1;exitDx=0;exitDy=0;" parent="1" source="dnD3BIGXRiCvUnItMQ0W-28" target="dnD3BIGXRiCvUnItMQ0W-28" edge="1">
          <mxGeometry relative="1" as="geometry" />
        </mxCell>
        <mxCell id="a6otvqooGXa-oV83V2TE-2" value="디자인" style="rounded=0;whiteSpace=wrap;html=1;" vertex="1" parent="1">
          <mxGeometry x="190" y="430" width="80" height="40" as="geometry" />
        </mxCell>
        <mxCell id="a6otvqooGXa-oV83V2TE-3" value="좋아요/댓글" style="rounded=0;whiteSpace=wrap;html=1;" vertex="1" parent="1">
          <mxGeometry x="190" y="485" width="80" height="40" as="geometry" />
        </mxCell>
        <mxCell id="a6otvqooGXa-oV83V2TE-12" value="" style="edgeStyle=orthogonalEdgeStyle;rounded=0;orthogonalLoop=1;jettySize=auto;html=1;" edge="1" parent="1" source="a6otvqooGXa-oV83V2TE-4" target="a6otvqooGXa-oV83V2TE-11">
          <mxGeometry relative="1" as="geometry" />
        </mxCell>
        <mxCell id="a6otvqooGXa-oV83V2TE-17" style="edgeStyle=orthogonalEdgeStyle;rounded=0;orthogonalLoop=1;jettySize=auto;html=1;entryX=0;entryY=0.5;entryDx=0;entryDy=0;" edge="1" parent="1" source="a6otvqooGXa-oV83V2TE-4" target="a6otvqooGXa-oV83V2TE-15">
          <mxGeometry relative="1" as="geometry" />
        </mxCell>
        <mxCell id="a6otvqooGXa-oV83V2TE-4" value="내용 입력 및 저장" style="rounded=0;whiteSpace=wrap;html=1;" vertex="1" parent="1">
          <mxGeometry x="190" y="535" width="80" height="40" as="geometry" />
        </mxCell>
        <mxCell id="a6otvqooGXa-oV83V2TE-8" value="디자인" style="rounded=0;whiteSpace=wrap;html=1;" vertex="1" parent="1">
          <mxGeometry x="190" y="610" width="80" height="40" as="geometry" />
        </mxCell>
        <mxCell id="a6otvqooGXa-oV83V2TE-30" style="edgeStyle=orthogonalEdgeStyle;rounded=0;orthogonalLoop=1;jettySize=auto;html=1;" edge="1" parent="1" source="a6otvqooGXa-oV83V2TE-9" target="a6otvqooGXa-oV83V2TE-20">
          <mxGeometry relative="1" as="geometry" />
        </mxCell>
        <mxCell id="a6otvqooGXa-oV83V2TE-9" value="등록" style="rounded=0;whiteSpace=wrap;html=1;" vertex="1" parent="1">
          <mxGeometry x="190" y="670" width="80" height="40" as="geometry" />
        </mxCell>
        <mxCell id="a6otvqooGXa-oV83V2TE-27" style="edgeStyle=orthogonalEdgeStyle;rounded=0;orthogonalLoop=1;jettySize=auto;html=1;entryX=0;entryY=0.5;entryDx=0;entryDy=0;" edge="1" parent="1" source="a6otvqooGXa-oV83V2TE-10" target="a6otvqooGXa-oV83V2TE-21">
          <mxGeometry relative="1" as="geometry" />
        </mxCell>
        <mxCell id="a6otvqooGXa-oV83V2TE-28" style="edgeStyle=orthogonalEdgeStyle;rounded=0;orthogonalLoop=1;jettySize=auto;html=1;entryX=0;entryY=0.5;entryDx=0;entryDy=0;" edge="1" parent="1" source="a6otvqooGXa-oV83V2TE-10" target="a6otvqooGXa-oV83V2TE-25">
          <mxGeometry relative="1" as="geometry" />
        </mxCell>
        <mxCell id="a6otvqooGXa-oV83V2TE-29" style="edgeStyle=orthogonalEdgeStyle;rounded=0;orthogonalLoop=1;jettySize=auto;html=1;entryX=0;entryY=0.5;entryDx=0;entryDy=0;" edge="1" parent="1" source="a6otvqooGXa-oV83V2TE-10" target="a6otvqooGXa-oV83V2TE-26">
          <mxGeometry relative="1" as="geometry" />
        </mxCell>
        <mxCell id="a6otvqooGXa-oV83V2TE-10" value="코디" style="rounded=0;whiteSpace=wrap;html=1;" vertex="1" parent="1">
          <mxGeometry x="190" y="770" width="80" height="40" as="geometry" />
        </mxCell>
        <mxCell id="a6otvqooGXa-oV83V2TE-11" value="저장/ 나열(?)" style="ellipse;whiteSpace=wrap;html=1;rounded=0;fillColor=#f8cecc;strokeColor=#b85450;" vertex="1" parent="1">
          <mxGeometry x="560" y="540" width="110" height="30" as="geometry" />
        </mxCell>
        <mxCell id="a6otvqooGXa-oV83V2TE-15" value="손글씨 UI 구현" style="ellipse;whiteSpace=wrap;html=1;rounded=0;fillColor=#f8cecc;strokeColor=#b85450;" vertex="1" parent="1">
          <mxGeometry x="560" y="575" width="110" height="30" as="geometry" />
        </mxCell>
        <mxCell id="a6otvqooGXa-oV83V2TE-20" value="등록 및 배경 제거" style="ellipse;whiteSpace=wrap;html=1;rounded=0;fillColor=#f8cecc;strokeColor=#b85450;" vertex="1" parent="1">
          <mxGeometry x="310" y="670" width="110" height="40" as="geometry" />
        </mxCell>
        <mxCell id="a6otvqooGXa-oV83V2TE-21" value="부위 별" style="ellipse;whiteSpace=wrap;html=1;rounded=0;" vertex="1" parent="1">
          <mxGeometry x="420" y="730" width="110" height="30" as="geometry" />
        </mxCell>
        <mxCell id="a6otvqooGXa-oV83V2TE-25" value="코디 모드" style="ellipse;whiteSpace=wrap;html=1;rounded=0;" vertex="1" parent="1">
          <mxGeometry x="420" y="775" width="110" height="30" as="geometry" />
        </mxCell>
        <mxCell id="a6otvqooGXa-oV83V2TE-26" value="기록" style="ellipse;whiteSpace=wrap;html=1;rounded=0;" vertex="1" parent="1">
          <mxGeometry x="420" y="820" width="110" height="30" as="geometry" />
        </mxCell>
        <mxCell id="a6otvqooGXa-oV83V2TE-47" style="edgeStyle=orthogonalEdgeStyle;rounded=0;orthogonalLoop=1;jettySize=auto;html=1;" edge="1" parent="1" source="a6otvqooGXa-oV83V2TE-32">
          <mxGeometry relative="1" as="geometry">
            <mxPoint x="350" y="1090" as="targetPoint" />
          </mxGeometry>
        </mxCell>
        <mxCell id="a6otvqooGXa-oV83V2TE-32" value="투표 결과 기반" style="ellipse;whiteSpace=wrap;html=1;rounded=0;" vertex="1" parent="1">
          <mxGeometry x="390" y="1020" width="110" height="30" as="geometry" />
        </mxCell>
        <mxCell id="a6otvqooGXa-oV83V2TE-50" style="edgeStyle=orthogonalEdgeStyle;rounded=0;orthogonalLoop=1;jettySize=auto;html=1;" edge="1" parent="1" source="a6otvqooGXa-oV83V2TE-33">
          <mxGeometry relative="1" as="geometry">
            <mxPoint x="350" y="1085" as="targetPoint" />
          </mxGeometry>
        </mxCell>
        <mxCell id="a6otvqooGXa-oV83V2TE-33" value="날씨 기반" style="ellipse;whiteSpace=wrap;html=1;rounded=0;" vertex="1" parent="1">
          <mxGeometry x="390" y="1070" width="110" height="30" as="geometry" />
        </mxCell>
        <mxCell id="a6otvqooGXa-oV83V2TE-49" style="edgeStyle=orthogonalEdgeStyle;rounded=0;orthogonalLoop=1;jettySize=auto;html=1;" edge="1" parent="1" source="a6otvqooGXa-oV83V2TE-34">
          <mxGeometry relative="1" as="geometry">
            <mxPoint x="350" y="1080" as="targetPoint" />
          </mxGeometry>
        </mxCell>
        <mxCell id="a6otvqooGXa-oV83V2TE-34" value="특별 상황 기반" style="ellipse;whiteSpace=wrap;html=1;rounded=0;" vertex="1" parent="1">
          <mxGeometry x="390" y="1120" width="110" height="30" as="geometry" />
        </mxCell>
        <mxCell id="a6otvqooGXa-oV83V2TE-43" style="edgeStyle=orthogonalEdgeStyle;rounded=0;orthogonalLoop=1;jettySize=auto;html=1;" edge="1" parent="1" source="a6otvqooGXa-oV83V2TE-39">
          <mxGeometry relative="1" as="geometry">
            <mxPoint x="350" y="1090" as="targetPoint" />
          </mxGeometry>
        </mxCell>
        <mxCell id="a6otvqooGXa-oV83V2TE-39" value="코디" style="rounded=0;whiteSpace=wrap;html=1;" vertex="1" parent="1">
          <mxGeometry x="230" y="1040" width="80" height="40" as="geometry" />
        </mxCell>
        <mxCell id="a6otvqooGXa-oV83V2TE-45" style="edgeStyle=orthogonalEdgeStyle;rounded=0;orthogonalLoop=1;jettySize=auto;html=1;" edge="1" parent="1" source="a6otvqooGXa-oV83V2TE-40">
          <mxGeometry relative="1" as="geometry">
            <mxPoint x="350" y="1080" as="targetPoint" />
          </mxGeometry>
        </mxCell>
        <mxCell id="a6otvqooGXa-oV83V2TE-40" value="카테고리 별&lt;br&gt;아이템" style="rounded=0;whiteSpace=wrap;html=1;" vertex="1" parent="1">
          <mxGeometry x="230" y="1090" width="80" height="40" as="geometry" />
        </mxCell>
        <mxCell id="a6otvqooGXa-oV83V2TE-52" value="필터 기능" style="ellipse;whiteSpace=wrap;html=1;rounded=0;fillColor=#f8cecc;strokeColor=#b85450;" vertex="1" parent="1">
          <mxGeometry x="190" y="910" width="110" height="30" as="geometry" />
        </mxCell>
        <mxCell id="a6otvqooGXa-oV83V2TE-54" value="디자인" style="rounded=0;whiteSpace=wrap;html=1;" vertex="1" parent="1">
          <mxGeometry x="190" y="850" width="80" height="40" as="geometry" />
        </mxCell>
        <mxCell id="a6otvqooGXa-oV83V2TE-56" value="디자인" style="rounded=0;whiteSpace=wrap;html=1;" vertex="1" parent="1">
          <mxGeometry x="230" y="980" width="80" height="40" as="geometry" />
        </mxCell>
        <mxCell id="a6otvqooGXa-oV83V2TE-58" value="필터 기능" style="ellipse;whiteSpace=wrap;html=1;rounded=0;" vertex="1" parent="1">
          <mxGeometry x="190" y="910" width="110" height="30" as="geometry" />
        </mxCell>
        <mxCell id="a6otvqooGXa-oV83V2TE-59" value="등록 및 배경 제거" style="ellipse;whiteSpace=wrap;html=1;rounded=0;" vertex="1" parent="1">
          <mxGeometry x="310" y="670" width="110" height="40" as="geometry" />
        </mxCell>
        <mxCell id="a6otvqooGXa-oV83V2TE-60" value="손글씨 UI 구현" style="ellipse;whiteSpace=wrap;html=1;rounded=0;" vertex="1" parent="1">
          <mxGeometry x="560" y="575" width="110" height="30" as="geometry" />
        </mxCell>
        <mxCell id="a6otvqooGXa-oV83V2TE-61" value="저장/ 나열(?)" style="ellipse;whiteSpace=wrap;html=1;rounded=0;" vertex="1" parent="1">
          <mxGeometry x="560" y="540" width="110" height="30" as="geometry" />
        </mxCell>
      </root>
    </mxGraphModel>
  </diagram>
</mxfile>
